<svg width="33" height="20" viewBox="0 0 33 20" fill="none" xmlns="http://www.w3.org/2000/svg">
<path d="M4.89891 1.00093L16.0094 12.1114L27.1199 1.00093C27.3767 0.701171 27.6925 0.457713 28.0478 0.285834C28.4031 0.113955 28.79 0.0173664 29.1844 0.00213385C29.5788 -0.0130987 29.972 0.0533523 30.3395 0.197315C30.7069 0.341278 31.0407 0.559646 31.3197 0.838711C31.5988 1.11778 31.8172 1.45151 31.9611 1.81898C32.1051 2.18644 32.1716 2.5797 32.1563 2.97406C32.1411 3.36842 32.0445 3.75538 31.8726 4.11064C31.7007 4.46591 31.4573 4.78181 31.1575 5.03851L18.0139 18.1821C17.4774 18.7155 16.7516 19.0148 15.9951 19.0148C15.2386 19.0148 14.5128 18.7155 13.9763 18.1821L0.832694 5.03851C0.299358 4.50199 0 3.77623 0 3.01972C0 2.26322 0.299358 1.53745 0.832694 1.00093C1.37658 0.470598 2.10616 0.173772 2.8658 0.173772C3.62545 0.173772 4.35503 0.470598 4.89891 1.00093Z" fill="#EFEFEF"/>
</svg>
