<svg width="24" height="15" viewBox="0 0 24 15" fill="none" xmlns="http://www.w3.org/2000/svg">
<path d="M9.941 6.79575C10.3718 6.59612 10.7591 6.31377 11.081 5.96475C11.5647 5.35385 11.8099 4.58799 11.771 3.80975C11.7922 3.01079 11.5521 2.22675 11.087 1.57675C10.6092 1.03147 10.0099 0.606158 9.33751 0.335171C8.66508 0.0641839 7.93836 -0.0448943 7.216 0.0167428H0V14.6437H6.729C7.43725 14.6477 8.14411 14.5807 8.839 14.4437C9.44911 14.3276 10.0255 14.0765 10.526 13.7087C10.9493 13.3973 11.3083 13.0068 11.583 12.5588C12.0295 11.8638 12.2611 11.0527 12.249 10.2267C12.272 9.47063 12.0697 8.72472 11.668 8.08374C11.2496 7.47618 10.6426 7.02348 9.941 6.79575V6.79575ZM2.977 2.55774H6.227C6.82392 2.54187 7.41968 2.61879 7.993 2.78575C8.25466 2.89452 8.47403 3.08514 8.61825 3.32906C8.76248 3.57298 8.82379 3.85706 8.793 4.13874C8.81837 4.38776 8.77524 4.63897 8.66827 4.86525C8.56129 5.09154 8.39453 5.28431 8.186 5.42275C7.70148 5.68341 7.15571 5.8088 6.606 5.78575H2.977V2.55774ZM8.117 11.8487C7.63723 12.0431 7.12105 12.1311 6.604 12.1067H2.977V8.20675H6.653C7.16436 8.18854 7.67424 8.27216 8.153 8.45275C8.45628 8.58137 8.71131 8.8023 8.88185 9.08414C9.0524 9.36599 9.12978 9.69441 9.103 10.0227C9.14179 10.3909 9.06839 10.7622 8.89243 11.0878C8.71647 11.4135 8.44617 11.6784 8.117 11.8477V11.8487Z" fill="#110F17"/>
<path d="M21.677 0.703735H15.278V2.53774H21.677V0.703735Z" fill="#110F17"/>
<path d="M23.88 7.37802C23.7651 6.56899 23.4631 5.79791 22.998 5.12602C22.5297 4.4177 21.8683 3.85831 21.092 3.51403C20.2712 3.16194 19.385 2.98811 18.492 3.00403C17.7661 2.9759 17.042 3.09521 16.3634 3.35474C15.6848 3.61427 15.0659 4.00863 14.544 4.51403C14.0104 5.09796 13.6006 5.78389 13.3392 6.53046C13.0778 7.27703 12.9703 8.06879 13.023 8.85803C12.947 9.66581 13.0598 10.4802 13.3526 11.2369C13.6454 11.9936 14.1101 12.6718 14.7101 13.218C15.8105 14.1044 17.1862 14.5784 18.5991 14.558C19.3645 14.6029 20.1308 14.4846 20.8471 14.211C21.5634 13.9374 22.2134 13.5148 22.7541 12.971C23.3124 12.446 23.6872 11.7553 23.8231 11.001H20.875C20.728 11.2889 20.5239 11.5437 20.2751 11.75C19.8164 12.0983 19.2504 12.2751 18.675 12.25C18.1159 12.2663 17.5635 12.1238 17.082 11.839C16.7061 11.5891 16.4018 11.2456 16.1989 10.8423C15.996 10.439 15.9016 9.98986 15.925 9.53903H23.971C23.997 8.81743 23.9666 8.09489 23.88 7.37802V7.37802ZM16.003 7.66004C16.0721 7.02996 16.3421 6.43883 16.773 5.97403C17.0029 5.75858 17.2742 5.59214 17.5704 5.48487C17.8666 5.37759 18.1815 5.33171 18.496 5.35002C19.1196 5.33031 19.729 5.53866 20.2101 5.93602C20.4488 6.1557 20.6402 6.42186 20.7724 6.71814C20.9047 7.01443 20.975 7.3346 20.979 7.65903L16.003 7.66004Z" fill="#110F17"/>
</svg>
