<svg xmlns="http://www.w3.org/2000/svg" xmlns:xlink="http://www.w3.org/1999/xlink" width="24" height="24" viewBox="0 0 24 24">
  <defs>
    <clipPath id="clip-path">
      <rect id="Ret창ngulo_5" data-name="Ret창ngulo 5" width="24" height="24" transform="translate(-259 599)" fill="#fff"/>
    </clipPath>
  </defs>
  <g id="behance_white" transform="translate(259 -599)" clip-path="url(#clip-path)">
    <g id="behance-network" transform="translate(-259 507.917)">
      <g id="Grupo_42" data-name="Grupo 42" transform="translate(0 95.979)">
        <g id="Grupo_41" data-name="Grupo 41" transform="translate(0 0)">
          <path id="Caminho_10" data-name="Caminho 10" d="M9.941,102.758a3.623,3.623,0,0,0,1.14-.831,3.213,3.213,0,0,0,.69-2.155,3.67,3.67,0,0,0-.684-2.233,4.624,4.624,0,0,0-3.871-1.56H0v14.627H6.729a10.6,10.6,0,0,0,2.11-.2,4.164,4.164,0,0,0,1.687-.735,4.067,4.067,0,0,0,1.057-1.15,4.2,4.2,0,0,0,.666-2.332,3.817,3.817,0,0,0-.581-2.143A3.354,3.354,0,0,0,9.941,102.758ZM2.977,98.52h3.25a5.768,5.768,0,0,1,1.766.228,1.311,1.311,0,0,1,.8,1.353,1.374,1.374,0,0,1-.607,1.284,3.064,3.064,0,0,1-1.58.363H2.977Zm5.14,9.291a3.582,3.582,0,0,1-1.513.258H2.977v-3.9H6.653a3.861,3.861,0,0,1,1.5.246,1.567,1.567,0,0,1,.95,1.57A1.836,1.836,0,0,1,8.117,107.81Z" transform="translate(0 -95.979)" fill="#fff"/>
          <rect id="Ret창ngulo_4" data-name="Ret창ngulo 4" width="6.399" height="1.834" transform="translate(15.278 0.687)" fill="#fff"/>
          <path id="Caminho_11" data-name="Caminho 11" d="M290.727,175.553a5.255,5.255,0,0,0-.882-2.252,4.446,4.446,0,0,0-1.906-1.612,6.31,6.31,0,0,0-2.6-.51,5.376,5.376,0,0,0-3.948,1.51,5.86,5.86,0,0,0-1.521,4.344,5.233,5.233,0,0,0,1.687,4.36,6.061,6.061,0,0,0,3.889,1.34,5.413,5.413,0,0,0,4.155-1.587,3.574,3.574,0,0,0,1.069-1.97h-2.948a2.378,2.378,0,0,1-.6.749,2.468,2.468,0,0,1-1.6.5,2.96,2.96,0,0,1-1.593-.411,2.6,2.6,0,0,1-1.157-2.3h8.046A13.863,13.863,0,0,0,290.727,175.553Zm-7.877.282a2.953,2.953,0,0,1,.77-1.686,2.322,2.322,0,0,1,1.723-.624,2.564,2.564,0,0,1,1.714.586,2.382,2.382,0,0,1,.769,1.723Z" transform="translate(-266.826 -167.733)" fill="#fff"/>
        </g>
      </g>
    </g>
  </g>
</svg>
