<svg xmlns="http://www.w3.org/2000/svg" width="24" height="24" viewBox="0 0 24 24">
  <g id="email_white" transform="translate(1883 1559)">
    <rect id="Retângulo_15" data-name="Retângulo 15" width="24" height="24" transform="translate(-1883 -1559)" fill="none"/>
    <g id="mail" transform="translate(-1883 -1620)">
      <g id="Grupo_5" data-name="Grupo 5" transform="translate(0 64)">
        <g id="Grupo_4" data-name="Grupo 4">
          <path id="Caminho_2" data-name="Caminho 2" d="M7.091,65.46c3.294,2.79,9.074,7.7,10.772,9.228a1,1,0,0,0,1.452,0c1.7-1.532,7.48-6.44,10.774-9.229a.5.5,0,0,0,.07-.69A1.986,1.986,0,0,0,28.59,64h-20a1.985,1.985,0,0,0-1.569.771A.5.5,0,0,0,7.091,65.46Z" transform="translate(-6.59 -64)" fill="#fff"/>
          <path id="Caminho_3" data-name="Caminho 3" d="M346.194,126.458a.5.5,0,0,0-.533.072c-2.157,1.829-5,4.245-7.143,6.088a.5.5,0,0,0,.014.769c1.992,1.6,4.993,3.79,7.161,5.349a.5.5,0,0,0,.792-.406V126.912A.5.5,0,0,0,346.194,126.458Z" transform="translate(-322.484 -123.486)" fill="#fff"/>
          <path id="Caminho_4" data-name="Caminho 4" d="M.792,138.746c2.168-1.56,5.17-3.754,7.161-5.349a.5.5,0,0,0,.014-.769c-2.144-1.844-4.986-4.26-7.144-6.088a.5.5,0,0,0-.823.381V138.34a.5.5,0,0,0,.792.406Z" transform="translate(0 -123.495)" fill="#fff"/>
          <path id="Caminho_5" data-name="Caminho 5" d="M31.607,290.886c-2.093-1.5-5.949-4.29-8.251-6.158a.5.5,0,0,0-.644.011c-.452.394-.83.726-1.1.967a2.025,2.025,0,0,1-2.791,0c-.267-.241-.645-.574-1.1-.966a.5.5,0,0,0-.643-.011c-2.294,1.862-6.154,4.657-8.251,6.158a.5.5,0,0,0-.075.747,2,2,0,0,0,1.462.642h20a2.006,2.006,0,0,0,1.462-.642.5.5,0,0,0-.075-.747Z" transform="translate(-8.219 -274.274)" fill="#fff"/>
        </g>
      </g>
    </g>
  </g>
</svg>
