<svg width="25" height="24" viewBox="0 0 25 24" fill="none" xmlns="http://www.w3.org/2000/svg">
<path d="M24.0299 24H24.0359V15.2C24.0359 10.894 23.1089 7.57703 18.0749 7.57703C17.1296 7.54189 16.1926 7.76396 15.3636 8.21956C14.5347 8.67516 13.8449 9.34721 13.3679 10.164H13.2979V7.97603H8.5249V24H13.4949V16.065C13.4949 13.976 13.8949 11.956 16.4779 11.956C19.0269 11.956 19.0649 14.34 19.0649 16.199V24H24.0299Z" fill="#110F17"/>
<path d="M0.436035 7.97705H5.40804V24H0.436035V7.97705Z" fill="#110F17"/>
<path d="M2.91795 5.5543e-05C2.34286 -0.003503 1.77971 0.164004 1.30006 0.481287C0.820404 0.79857 0.445919 1.2513 0.224197 1.78193C0.00247529 2.31257 -0.0564704 2.89714 0.0548523 3.46136C0.166175 4.02558 0.442739 4.54396 0.849392 4.95061C1.25604 5.35726 1.77442 5.63383 2.33864 5.74515C2.90286 5.85647 3.48743 5.79753 4.01807 5.5758C4.5487 5.35408 5.00143 4.9796 5.31871 4.49995C5.636 4.02029 5.8035 3.45714 5.79995 2.88206C5.79968 2.11778 5.49596 1.38489 4.95553 0.844467C4.41511 0.304044 3.68222 0.000320593 2.91795 5.5543e-05V5.5543e-05Z" fill="#110F17"/>
</svg>
