<svg width="79" height="78" viewBox="0 0 79 78" fill="none" xmlns="http://www.w3.org/2000/svg">
<path d="M19.1876 78C16.1849 78 13.5381 77.4854 11.247 76.4563C8.9733 75.4272 7.20294 73.935 5.93591 71.9797C4.66889 70.0244 4.03538 67.6488 4.03538 64.8531V45.2999L0 44.5281V40H15.6989V44.5281L11.6375 45.2999V64.8531C11.6375 66.4997 11.9413 67.8718 12.5487 68.9695C13.1562 70.0673 14.024 70.8905 15.1522 71.4394C16.2804 71.9711 17.6255 72.237 19.1876 72.237C20.7844 72.237 22.1469 71.9711 23.275 71.4394C24.4206 70.8905 25.2971 70.0673 25.9045 68.9695C26.512 67.8718 26.8158 66.4997 26.8158 64.8531V45.2999L22.7804 44.5281V40H38.4793V44.5281L34.4179 45.2999V64.8531C34.4179 67.6488 33.7757 70.0329 32.4913 72.0054C31.2243 73.9607 29.4453 75.4529 27.1542 76.4821C24.8805 77.494 22.225 78 19.1876 78Z" fill="#EFEFEF"/>
<path d="M40.4319 77.4597V72.9573L43.7383 72.3399L54.4646 58.91L44.3632 45.1713L41.2911 44.5281V40H56.1048V44.5281L52.486 44.8626L58.9947 53.8673L65.5033 44.8626L61.9626 44.5281V40H76.5681V44.5281L73.2096 45.1713L63.4987 58.241L74.3812 72.3141L78 72.9573V77.4597H62.8218V72.9573L66.0761 72.6486L59.0467 63.1293L51.8611 72.6486L55.0374 72.9573V77.4597H40.4319Z" fill="#EFEFEF"/>
<path d="M14.6055 29.4102C12.3529 29.4102 10.3672 29.0195 8.64844 28.2383C6.94271 27.457 5.61458 26.3242 4.66406 24.8398C3.71354 23.3555 3.23828 21.5521 3.23828 19.4297V4.58594L0.210938 4V0.5625H11.9883V4L8.94141 4.58594V19.4297C8.94141 20.6797 9.16927 21.7214 9.625 22.5547C10.0807 23.388 10.7318 24.013 11.5781 24.4297C12.4245 24.8333 13.4336 25.0352 14.6055 25.0352C15.8034 25.0352 16.8255 24.8333 17.6719 24.4297C18.5312 24.013 19.1888 23.388 19.6445 22.5547C20.1003 21.7214 20.3281 20.6797 20.3281 19.4297V4.58594L17.3008 4V0.5625H29.0781V4L26.0312 4.58594V19.4297C26.0312 21.5521 25.5495 23.362 24.5859 24.8594C23.6354 26.3438 22.3008 27.4766 20.582 28.2578C18.8763 29.026 16.8841 29.4102 14.6055 29.4102Z" fill="#EFEFEF"/>
<path d="M30.9336 29V25.582L33.9609 24.9961V4.58594L30.9336 4V0.5625H42.6914V4L39.6641 4.58594V24.9961L42.6914 25.582V29H30.9336Z" fill="#EFEFEF"/>
<path d="M63.7656 29.4102C61.8776 29.4102 60.237 29.0716 58.8438 28.3945C57.4505 27.7174 56.3698 26.7734 55.6016 25.5625C54.8464 24.3516 54.4688 22.9453 54.4688 21.3438C54.4688 19.8724 54.8594 18.5964 55.6406 17.5156C56.4219 16.4219 57.6068 15.3086 59.1953 14.1758C59.2604 14.1237 59.3255 14.0716 59.3906 14.0195C59.4688 13.9674 59.5404 13.9219 59.6055 13.8828C58.7201 12.6849 58.056 11.5911 57.6133 10.6016C57.1836 9.61198 56.9688 8.60286 56.9688 7.57422C56.9688 6.0638 57.2878 4.75521 57.9258 3.64844C58.5638 2.54167 59.4622 1.68229 60.6211 1.07031C61.793 0.458333 63.1602 0.152344 64.7227 0.152344C66.1029 0.152344 67.3138 0.451823 68.3555 1.05078C69.4102 1.63672 70.2305 2.42448 70.8164 3.41406C71.4154 4.40365 71.7148 5.51042 71.7148 6.73438C71.7148 8.01042 71.3958 9.17578 70.7578 10.2305C70.1198 11.2852 69.2474 12.2096 68.1406 13.0039L66.3242 14.293L71.7148 20.582C72.1836 19.8008 72.5482 18.9544 72.8086 18.043C73.069 17.1315 73.1992 16.168 73.1992 15.1523H77.457C77.457 16.9492 77.2357 18.6029 76.793 20.1133C76.3503 21.6237 75.6732 22.9648 74.7617 24.1367L78.8242 28.9023L78.7852 29H72.457L70.9531 27.2617C69.8464 27.9779 68.707 28.5182 67.5352 28.8828C66.3633 29.2344 65.1068 29.4102 63.7656 29.4102ZM64.0586 25.0352C64.7487 25.0352 65.4388 24.9505 66.1289 24.7812C66.819 24.599 67.4831 24.332 68.1211 23.9805L62.2617 17.1836L61.8906 17.4375C61.2266 18.0625 60.7708 18.6745 60.5234 19.2734C60.2891 19.8594 60.1719 20.4518 60.1719 21.0508C60.1719 22.2096 60.5299 23.1667 61.2461 23.9219C61.9622 24.6641 62.8997 25.0352 64.0586 25.0352ZM63.7461 11.207L65.4258 10.1133C66.1549 9.64453 66.6432 9.16276 66.8906 8.66797C67.151 8.17318 67.2812 7.63281 67.2812 7.04688C67.2812 6.39583 67.0404 5.81641 66.5586 5.30859C66.0898 4.80078 65.4714 4.54688 64.7031 4.54688C63.8568 4.54688 63.2057 4.83333 62.75 5.40625C62.2943 5.96615 62.0664 6.66927 62.0664 7.51562C62.0664 8.07552 62.2031 8.65495 62.4766 9.25391C62.763 9.83984 63.1862 10.4909 63.7461 11.207Z" fill="#EFEFEF"/>
</svg>
